<?xml version="1.0" standalone="no"?>
<!DOCTYPE svg PUBLIC "-//W3C//DTD SVG 20010904//EN"
 "http://www.w3.org/TR/2001/REC-SVG-20010904/DTD/svg10.dtd">
<svg version="1.0" xmlns="http://www.w3.org/2000/svg"
 width="1000.000000pt" height="1000.000000pt" viewBox="0 0 1000.000000 1000.000000"
 preserveAspectRatio="xMidYMid meet">
<metadata>
Created by potrace 1.14, written by Peter Selinger 2001-2017
</metadata>
<g transform="translate(0.000000,1000.000000) scale(0.100000,-0.100000)"
fill="#000000" stroke="none">
<path d="M5055 9575 c-155 -22 -279 -47 -320 -65 -39 -17 -160 -59 -188 -66
-15 -3 -30 -10 -33 -15 -3 -5 -14 -9 -25 -9 -10 0 -19 -4 -19 -8 0 -4 -17 -14
-37 -21 -49 -17 -225 -102 -239 -116 -6 -6 -31 -19 -55 -30 -24 -11 -50 -25
-57 -33 -8 -7 -30 -19 -50 -28 -20 -8 -46 -23 -57 -33 -11 -10 -37 -27 -58
-39 -20 -12 -43 -26 -50 -32 -21 -18 -80 -58 -111 -76 -16 -9 -41 -27 -55 -40
-14 -13 -34 -27 -43 -30 -10 -3 -18 -9 -18 -14 0 -4 -23 -25 -52 -45 -54 -39
-68 -50 -97 -75 -9 -8 -39 -33 -66 -55 -28 -22 -64 -53 -81 -70 -17 -16 -73
-68 -125 -115 -51 -47 -161 -154 -243 -239 -129 -131 -151 -158 -150 -182 2
-32 21 -62 34 -54 5 3 11 1 15 -4 3 -6 12 -8 20 -4 8 3 15 0 15 -7 0 -7 6 -10
14 -7 8 3 17 3 21 -1 7 -7 34 -9 210 -11 l100 -2 0 -54 c0 -43 5 -58 23 -75
12 -11 22 -22 22 -24 0 -2 -22 -51 -49 -109 -27 -57 -52 -120 -56 -138 -4 -19
-18 -66 -31 -106 -13 -40 -34 -121 -45 -180 -11 -59 -27 -142 -36 -183 -61
-290 -74 -513 -48 -795 8 -88 15 -163 15 -167 0 -5 -11 -8 -25 -8 -60 0 -85
-36 -190 -275 -45 -101 -149 -415 -180 -545 -8 -30 -21 -80 -30 -110 -43 -145
-116 -525 -135 -710 -6 -57 -13 -107 -16 -111 -15 -25 -51 -537 -60 -874 -11
-373 43 -1198 96 -1486 6 -30 21 -129 35 -220 22 -148 33 -223 66 -429 5 -36
14 -101 20 -144 5 -44 16 -111 24 -150 8 -39 26 -138 40 -221 80 -467 94 -542
100 -557 7 -17 99 -18 1731 -18 1353 0 1724 3 1724 12 0 7 24 89 53 183 30 93
59 192 66 219 6 26 20 68 31 92 11 23 20 49 20 56 0 6 16 62 34 123 34 107 53
178 76 280 14 61 37 153 55 220 8 28 17 73 20 100 4 28 19 102 35 165 15 63
33 149 40 190 6 41 20 113 30 160 29 136 40 199 55 300 13 89 22 146 45 280
29 169 91 700 100 850 19 329 5 822 -25 920 -7 25 -17 65 -20 90 -4 25 -11 61
-15 80 -11 42 -25 106 -41 180 -16 73 -70 244 -80 250 -4 3 -20 41 -34 85 -15
44 -44 114 -66 155 -21 42 -39 80 -39 86 0 6 -9 22 -21 35 -12 13 -37 55 -56
93 -19 37 -44 78 -55 90 -11 11 -29 39 -40 60 -23 46 -24 46 -108 139 -70 78
-124 132 -215 216 l-58 55 34 25 c90 65 205 199 337 390 31 46 48 61 57 53 4
-4 5 -2 4 3 -5 15 31 65 47 65 7 0 33 6 56 14 137 44 382 107 418 106 13 0 13
-1 0 -11 -12 -8 -11 -9 5 -6 11 2 19 9 17 15 -2 13 -1 13 38 19 99 14 110 21
142 96 21 49 -46 98 -110 79 -21 -6 -139 -11 -278 -12 l-241 -1 -7 32 c-3 17
-6 42 -6 54 0 13 -15 54 -34 91 -19 38 -41 89 -49 114 -41 124 -49 138 -150
290 -10 14 -33 49 -53 79 -32 49 -61 86 -184 235 -35 43 -165 168 -228 219
l-34 27 39 16 c65 27 133 75 149 106 22 42 0 128 -33 128 -7 0 -13 4 -13 9 0
12 -115 81 -195 117 l-70 31 -5 62 c-4 46 -2 61 8 61 11 0 56 27 88 55 7 6 27
21 45 35 89 68 166 172 198 266 17 52 19 70 10 129 -5 38 -16 82 -24 98 -8 17
-15 36 -15 44 0 7 -4 13 -9 13 -4 0 -20 17 -33 38 -31 46 -106 122 -120 122
-6 0 -18 8 -27 18 -26 28 -165 90 -261 116 -56 15 -139 24 -265 30 -38 2 -142
-7 -230 -19z m272 -1947 c-3 -8 -6 -5 -6 6 -1 11 2 17 5 13 3 -3 4 -12 1 -19z
m-510 -65 c-3 -10 -5 -2 -5 17 0 19 2 27 5 18 2 -10 2 -26 0 -35z m-640 21
c-3 -3 -12 -4 -19 -1 -8 3 -5 6 6 6 11 1 17 -2 13 -5z m220 -236 c-3 -7 -5 -2
-5 12 0 14 2 19 5 13 2 -7 2 -19 0 -25z m-40 0 c-3 -8 -6 -5 -6 6 -1 11 2 17
5 13 3 -3 4 -12 1 -19z m-470 -10 c-3 -8 -6 -5 -6 6 -1 11 2 17 5 13 3 -3 4
-12 1 -19z m410 -30 c-3 -7 -5 -2 -5 12 0 14 2 19 5 13 2 -7 2 -19 0 -25z
m820 26 c-3 -3 -12 -4 -19 -1 -8 3 -5 6 6 6 11 1 17 -2 13 -5z m-1230 -36 c-3
-8 -6 -5 -6 6 -1 11 2 17 5 13 3 -3 4 -12 1 -19z m94 -165 c13 -16 12 -17 -3
-4 -10 7 -18 15 -18 17 0 8 8 3 21 -13z m146 -59 c-3 -3 -12 -4 -19 -1 -8 3
-5 6 6 6 11 1 17 -2 13 -5z m56 -1 c-7 -2 -19 -2 -25 0 -7 3 -2 5 12 5 14 0
19 -2 13 -5z"/>
</g>
</svg>
